<mxfile host="app.diagrams.net" modified="2024-02-19T19:21:10.103Z" agent="Mozilla/5.0 (Windows NT 10.0; Win64; x64) AppleWebKit/537.36 (KHTML, like Gecko) Chrome/121.0.0.0 Safari/537.36" etag="zLf_hXdG4UwjFD1Mpz2f" version="23.1.5" type="device">
  <diagram id="C5RBs43oDa-KdzZeNtuy" name="Page-1">
    <mxGraphModel dx="676" dy="382" grid="1" gridSize="10" guides="1" tooltips="1" connect="1" arrows="1" fold="1" page="1" pageScale="1" pageWidth="827" pageHeight="1169" math="0" shadow="0">
      <root>
        <mxCell id="WIyWlLk6GJQsqaUBKTNV-0" />
        <mxCell id="WIyWlLk6GJQsqaUBKTNV-1" parent="WIyWlLk6GJQsqaUBKTNV-0" />
        <mxCell id="54agSmFn4sW8LxPE4yaN-2" value="" style="edgeStyle=orthogonalEdgeStyle;rounded=0;orthogonalLoop=1;jettySize=auto;html=1;" edge="1" parent="WIyWlLk6GJQsqaUBKTNV-1" source="54agSmFn4sW8LxPE4yaN-0" target="54agSmFn4sW8LxPE4yaN-1">
          <mxGeometry relative="1" as="geometry" />
        </mxCell>
        <mxCell id="54agSmFn4sW8LxPE4yaN-0" value="Create variable called count and set to zero" style="rounded=1;whiteSpace=wrap;html=1;" vertex="1" parent="WIyWlLk6GJQsqaUBKTNV-1">
          <mxGeometry x="150" y="250" width="120" height="60" as="geometry" />
        </mxCell>
        <mxCell id="54agSmFn4sW8LxPE4yaN-8" value="" style="edgeStyle=orthogonalEdgeStyle;rounded=0;orthogonalLoop=1;jettySize=auto;html=1;" edge="1" parent="WIyWlLk6GJQsqaUBKTNV-1" source="54agSmFn4sW8LxPE4yaN-1" target="54agSmFn4sW8LxPE4yaN-7">
          <mxGeometry relative="1" as="geometry">
            <Array as="points">
              <mxPoint x="310" y="400" />
              <mxPoint x="310" y="400" />
            </Array>
          </mxGeometry>
        </mxCell>
        <mxCell id="54agSmFn4sW8LxPE4yaN-9" value="Yes" style="edgeLabel;html=1;align=center;verticalAlign=middle;resizable=0;points=[];" vertex="1" connectable="0" parent="54agSmFn4sW8LxPE4yaN-8">
          <mxGeometry x="-0.045" y="-3" relative="1" as="geometry">
            <mxPoint as="offset" />
          </mxGeometry>
        </mxCell>
        <mxCell id="54agSmFn4sW8LxPE4yaN-17" value="" style="edgeStyle=orthogonalEdgeStyle;rounded=0;orthogonalLoop=1;jettySize=auto;html=1;" edge="1" parent="WIyWlLk6GJQsqaUBKTNV-1" source="54agSmFn4sW8LxPE4yaN-1" target="54agSmFn4sW8LxPE4yaN-16">
          <mxGeometry relative="1" as="geometry" />
        </mxCell>
        <mxCell id="54agSmFn4sW8LxPE4yaN-19" value="No" style="edgeLabel;html=1;align=center;verticalAlign=middle;resizable=0;points=[];" vertex="1" connectable="0" parent="54agSmFn4sW8LxPE4yaN-17">
          <mxGeometry x="-0.4159" y="-1" relative="1" as="geometry">
            <mxPoint as="offset" />
          </mxGeometry>
        </mxCell>
        <mxCell id="54agSmFn4sW8LxPE4yaN-1" value="Is count &lt;br&gt;equal five?" style="rhombus;whiteSpace=wrap;html=1;rounded=1;" vertex="1" parent="WIyWlLk6GJQsqaUBKTNV-1">
          <mxGeometry x="145" y="360" width="130" height="90" as="geometry" />
        </mxCell>
        <mxCell id="54agSmFn4sW8LxPE4yaN-7" value="Print &quot;count is equal to five&quot;" style="whiteSpace=wrap;html=1;rounded=1;" vertex="1" parent="WIyWlLk6GJQsqaUBKTNV-1">
          <mxGeometry x="360" y="375" width="120" height="60" as="geometry" />
        </mxCell>
        <mxCell id="54agSmFn4sW8LxPE4yaN-13" style="edgeStyle=orthogonalEdgeStyle;rounded=0;orthogonalLoop=1;jettySize=auto;html=1;entryX=0;entryY=0.5;entryDx=0;entryDy=0;" edge="1" parent="WIyWlLk6GJQsqaUBKTNV-1" source="54agSmFn4sW8LxPE4yaN-10" target="54agSmFn4sW8LxPE4yaN-1">
          <mxGeometry relative="1" as="geometry">
            <Array as="points">
              <mxPoint x="130" y="575" />
              <mxPoint x="130" y="405" />
            </Array>
          </mxGeometry>
        </mxCell>
        <mxCell id="54agSmFn4sW8LxPE4yaN-10" value="Increment count" style="whiteSpace=wrap;html=1;rounded=1;" vertex="1" parent="WIyWlLk6GJQsqaUBKTNV-1">
          <mxGeometry x="70" y="620" width="120" height="60" as="geometry" />
        </mxCell>
        <mxCell id="54agSmFn4sW8LxPE4yaN-18" style="edgeStyle=orthogonalEdgeStyle;rounded=0;orthogonalLoop=1;jettySize=auto;html=1;entryX=1;entryY=0.5;entryDx=0;entryDy=0;" edge="1" parent="WIyWlLk6GJQsqaUBKTNV-1" source="54agSmFn4sW8LxPE4yaN-16" target="54agSmFn4sW8LxPE4yaN-10">
          <mxGeometry relative="1" as="geometry" />
        </mxCell>
        <mxCell id="54agSmFn4sW8LxPE4yaN-16" value="Print count" style="whiteSpace=wrap;html=1;rounded=1;" vertex="1" parent="WIyWlLk6GJQsqaUBKTNV-1">
          <mxGeometry x="150" y="490" width="120" height="60" as="geometry" />
        </mxCell>
      </root>
    </mxGraphModel>
  </diagram>
</mxfile>
